<svg xmlns="http://www.w3.org/2000/svg" xmlns:xlink="http://www.w3.org/1999/xlink" width="960" height="384" viewBox="0 0 960 384">
  <defs>
    <clipPath id="clip-path">
      <rect id="Rectangle_168" data-name="Rectangle 168" width="960" height="384" transform="translate(960 470)" fill="#fff" stroke="#707070" stroke-width="1"/>
    </clipPath>
    <clipPath id="clip-cut_pattern">
      <rect width="960" height="384"/>
    </clipPath>
  </defs>
  <g id="cut_pattern" clip-path="url(#clip-cut_pattern)">
    <g id="Mask_Group_1" data-name="Mask Group 1" transform="translate(-960 -470)" clip-path="url(#clip-path)">
      <g id="svgg" transform="translate(830.487 450.781)">
        <path id="path0" d="M1037.037,2.365c-5.8.613-12.4,1.546-14.659,2.068s-5.709,1.189-7.66,1.482c-3.641.544-11.194,2.447-22.212,5.608a222.024,222.024,0,0,0-32.873,13.145c-4.4,2.239-9.2,4.68-10.661,5.421-21.157,10.677-54.259,39.5-69.963,60.923-1.834,2.5-3.689,4.979-4.121,5.512-1.183,1.455-11,16.471-12.431,19.025-13.806,24.574-15.325,31.258-8.641,38.1,9.078,9.3,19.025,5.16,26.738-11.13a116.418,116.418,0,0,1,6.658-12.292,23.984,23.984,0,0,0,2.681-4.5c0-1.4,12.159-17.879,19.43-26.343,18.5-21.53,43.865-40.853,66.749-50.843,3.172-1.386,7.372-3.236,9.328-4.1,35.592-15.832,93.305-19.526,138.594-8.87,53.294,12.543,102.932,50.128,128.311,97.165,1.54,2.857,3.337,6.055,3.987,7.106a42.092,42.092,0,0,1,2.692,5.981c4.52,12.234,16.914,16.13,24.995,7.857,6.375-6.535,3.971-18.977-6.77-35.022-1.306-1.956-3.332-5.352-4.5-7.553-2.436-4.579-2.793-5.1-12.329-17.985-14.872-20.085-40.027-43.87-56.648-53.561-1.589-.928-2.889-1.972-2.889-2.324s-.837-.9-1.86-1.226a31.573,31.573,0,0,1-5.549-3.044c-5.6-3.721-26.717-13.758-35.235-16.743-11.743-4.115-21.477-7.148-24.8-7.724a17.6,17.6,0,0,1-3.667-.917c-8.1-5.005-64.585-8.182-92.693-5.213M532.306,73.432c-3.156.458-12.218,1.946-15.992,2.617-38.9,6.962-85.891,61.376-67.532,78.194,5.485,5.021,14.254,5.011,19.3-.032,2.17-2.17,2.868-3.417,5.645-10.075,20.5-49.1,99.516-57.484,132.122-14.025,6.034,8.049,9.094,12.868,9.947,15.656,4.185,13.769,20.528,16.86,27.116,5.128,3.363-5.976,2.116-11.839-5.443-25.576-5.89-10.714-20.784-26.94-30.533-33.268-2.932-1.9-6.333-4.131-7.553-4.941-3.412-2.281-15.885-7.761-19-8.358a29.978,29.978,0,0,1-4.28-1.29c-7.084-2.751-34.952-5.315-43.79-4.03m1039,.906c-29.318,4.707-54.334,20.794-70.288,45.208-14.654,22.426-14.259,35.315,1.178,38.209,7.388,1.386,12.026-2.01,17.01-12.447,18.918-39.627,66.488-55.272,107.629-35.4,15.213,7.351,35.768,29.409,36.013,38.646.1,3.742,8.422,9.627,13.62,9.632,12.217.011,17.281-11.8,10.858-25.331-20.288-42.745-67.117-66.365-116.019-58.519M439.075,162.787c-13.294,2.937-18.875,19.776-10.085,30.437,11.748,14.259,35.411,4.094,33.337-14.318-1.221-10.794-12.362-18.518-23.252-16.12m201.926.24c-8.881,2.287-13.4,7.916-13.929,17.362-1.055,18.683,22.218,26.871,33.6,11.823,10.592-14-2.607-33.588-19.67-29.185m203.141-.362c-12.052,2.9-18.726,14.627-14.328,25.16,7.905,18.923,36,14.414,36.408-5.842.107-5.421-1.5-11.354-3.086-11.354a.894.894,0,0,1-.784-.97c0-3.875-12.01-8.492-18.209-6.994m438.878.123a18.68,18.68,0,0,0-10.73,29.457c13.838,18.145,40.454,2.351,32.319-19.174-.512-1.343-1.28-2.441-1.706-2.441s-.783-.522-.783-1.167c0-3.993-12.132-8.23-19.1-6.674m202.731-.107c-14.462,2.463-20.117,21.914-9.318,32.042,12.116,11.359,31.823,3.033,31.8-13.428-.021-12.17-10.3-20.682-22.479-18.614m201.729.027c-14.3,3.364-19.712,20.805-9.728,31.322,11.663,12.292,32.079,4.547,32.281-12.244.149-12.735-10.65-21.871-22.553-19.078M1299.9,204.014c-.49.123-1.956.453-3.252.741-12.521,2.745-12.319,16.541.533,36.946,4.446,7.063,20.24,23.364,26.258,27.1a30.735,30.735,0,0,1,4.446,3.124c.709,1.029,19.216,9.861,22.415,10.7,20,5.24,30.619,6.626,43.769,5.72,29.158-2.015,50.091-11.146,69.185-30.176,5.469-5.453,15.933-19.03,16.109-20.906.026-.245,1.514-3.044,3.3-6.221,8.113-14.366,3.465-26.653-10.075-26.653-6.322,0-10.885,3.555-14.041,10.938-12.1,28.284-37.026,43.684-70.7,43.689-34.819.005-58.209-14.078-72.527-43.668-3.987-8.23-10.032-12.676-15.427-11.333m402.455.346c-16.85,3.854-13.524,21.669,10.655,57.106,3.422,5.011,6.418,9.312,6.663,9.552s2.234,2.644,4.419,5.331c8.374,10.3,22.516,24.766,30.235,30.922,2.2,1.759,4.4,3.635,4.883,4.174,2.479,2.729,20.421,14.995,29.766,20.347,21.988,12.591,54.878,24.067,76.845,26.813,1.956.245,5.954.837,8.886,1.311,30.672,4.979,75.731,2.121,106.611-6.759,4.4-1.263,8.8-2.511,9.771-2.772,6.4-1.7,23.443-8.993,35.538-15.2,8-4.1,30.891-19.11,35.091-23.007.736-.677,2.175-1.924,3.2-2.761,14.888-12.186,33.9-33.524,44.91-50.395,17.852-27.34,22.474-38.934,18.662-46.807-5.858-12.095-21.3-10.144-27.207,3.438-3.476,7.985-11.658,22.863-13.348,24.265a3.574,3.574,0,0,0-1.338,1.983c0,.485-1.141,2.335-2.532,4.115s-4.056,5.421-5.917,8.092c-5.006,7.186-22.5,25.73-30.2,32.01a199.3,199.3,0,0,1-20.432,15.2c-47.7,31.461-116.887,41.13-176.883,24.723-3.865-1.055-7.82-2.111-8.8-2.351-1.962-.474-9.147-3.092-15.954-5.81-11.988-4.787-32.783-16.311-40.016-22.175-.485-.394-2.484-1.919-4.44-3.385-24-18-45.8-44.531-59.6-72.538-6.957-14.115-11.04-17.351-19.472-15.421m-1048.44,1.722c-10.208,6.226-7.687,23.353,5.789,39.334.544.645,2.484,2.964,4.312,5.155,5.959,7.132,17.879,18.273,20.933,19.563a52.881,52.881,0,0,1,4.606,2.735c33.1,21.354,84.841,20.373,118.94-2.26,12.111-8.038,34.137-33.652,34.787-40.453.021-.245.927-2.393,2-4.781,6.972-15.395-10.72-28.545-22.692-16.86a60.04,60.04,0,0,0-4.755,8.278c-10.389,20.544-27.687,35.1-47.884,40.293-5.64,1.45-21.637,3.358-23.5,2.8-.512-.155-4.334-.5-8.486-.773-13.278-.874-28.875-6.471-38.2-13.7-5.538-4.3-16.647-15.794-17.324-17.937-.309-.97-.89-1.764-1.285-1.764s-.97-.7-1.263-1.551c-5.554-16.189-16.541-23.833-25.981-18.076m-643.976.272C-2.431,208.992-3.226,222.2,7.857,241.077a30.171,30.171,0,0,1,2.5,4.835,17.652,17.652,0,0,0,2.116,3.737c1.162,1.738,4.03,6.157,6.365,9.824,3.79,5.928,11.471,16.583,12.82,17.767.277.245,2.484,2.841,4.9,5.773,6.477,7.857,21.258,22.394,28.875,28.406,3.667,2.895,6.866,5.506,7.111,5.81a54.254,54.254,0,0,0,4.883,3.566c2.447,1.658,4.845,3.342,5.331,3.747,18.7,15.464,70.821,34.622,102.17,37.548,35.165,3.289,54.9,2.815,81.594-1.946,26.343-4.7,61.413-17.409,76.989-27.905,1.221-.821,4.622-3.022,7.553-4.888,20.347-12.953,43.764-34.654,58.385-54.11.368-.49,1.594-2.09,2.724-3.555,1.93-2.495,4.9-6.972,10.922-16.434a180.787,180.787,0,0,0,10.2-18.657c1.519-3.177,3.23-6.732,3.8-7.911,3.913-8.076-1.594-19.137-10.085-20.277-9.312-1.253-12.836,1.471-19.185,14.824-2.665,5.6-6.1,12.2-7.649,14.659-5.458,8.715-9.078,14.259-9.59,14.7a37.1,37.1,0,0,0-2.649,3.555c-7.431,10.853-24.915,28.774-37.7,38.646-1.9,1.466-4.488,3.491-5.757,4.5a107.805,107.805,0,0,1-11.631,7.761c-.736.347-2.932,1.626-4.888,2.841-59.046,36.663-156.584,36.642-217.661-.048-1.956-1.178-4.152-2.42-4.888-2.767a131.164,131.164,0,0,1-12.436-8.337,44.094,44.094,0,0,0-4-3.145C66.45,277.2,40.581,244.808,28.353,217.67c-2.361-5.24-6.4-10.581-8.044-10.64-.341-.011-2.026-.336-3.731-.725a18.661,18.661,0,0,0-6.637.048" transform="translate(24.613 18)" fill="#b4d434" fill-rule="evenodd"/>
        <path id="path1" d="M251.843,48.134a22.839,22.839,0,0,0,3.637,3.3c.223,0-1.039-1.485-2.811-3.3a22.909,22.909,0,0,0-3.632-3.3c-.228,0,1.034,1.485,2.806,3.3" transform="translate(983.048 172.229)" fill="#b8d434" fill-rule="evenodd"/>
        <path id="path2" d="M251.843,48.134a22.839,22.839,0,0,0,3.637,3.3c.223,0-1.039-1.485-2.811-3.3a22.909,22.909,0,0,0-3.632-3.3c-.228,0,1.034,1.485,2.806,3.3" transform="translate(983.048 172.229)" fill="#b8d434" fill-rule="evenodd"/>
        <path id="path3" d="M251.843,48.134a22.839,22.839,0,0,0,3.637,3.3c.223,0-1.039-1.485-2.811-3.3a22.909,22.909,0,0,0-3.632-3.3c-.228,0,1.034,1.485,2.806,3.3" transform="translate(983.048 172.229)" fill="#b8d434" fill-rule="evenodd"/>
        <path id="path4" d="M251.843,48.134a22.839,22.839,0,0,0,3.637,3.3c.223,0-1.039-1.485-2.811-3.3a22.909,22.909,0,0,0-3.632-3.3c-.228,0,1.034,1.485,2.806,3.3" transform="translate(983.048 172.229)" fill="#b8d434" fill-rule="evenodd"/>
      </g>
    </g>
  </g>
</svg>
