<svg id="svg" version="1.1" xmlns="http://www.w3.org/2000/svg" xmlns:xlink="http://www.w3.org/1999/xlink" width="400" height="69.97084548104957" viewBox="0, 0, 400,69.97084548104957"><g id="svgg"><path id="path0" d="M194.604 1.434 C 193.515 1.549,192.278 1.724,191.854 1.822 C 191.430 1.920,190.783 2.045,190.417 2.100 C 189.734 2.202,188.317 2.559,186.250 3.152 C 184.573 3.632,181.821 4.733,180.083 5.618 C 179.258 6.038,178.358 6.496,178.083 6.635 C 174.114 8.638,167.904 14.045,164.958 18.064 C 164.614 18.533,164.266 18.998,164.185 19.098 C 163.963 19.371,162.122 22.188,161.853 22.667 C 159.263 27.277,158.978 28.531,160.232 29.815 C 161.935 31.559,163.801 30.783,165.248 27.727 C 165.658 26.861,166.221 25.823,166.497 25.421 C 166.774 25.019,167.000 24.639,167.000 24.577 C 167.000 24.315,169.281 21.223,170.645 19.635 C 174.116 15.596,178.874 11.971,183.167 10.097 C 183.762 9.837,184.550 9.490,184.917 9.327 C 191.594 6.357,202.421 5.664,210.917 7.663 C 220.915 10.016,230.227 17.067,234.988 25.891 C 235.277 26.427,235.614 27.027,235.736 27.224 C 235.859 27.422,236.087 27.926,236.241 28.346 C 237.089 30.641,239.414 31.372,240.930 29.820 C 242.126 28.594,241.675 26.260,239.660 23.250 C 239.415 22.883,239.035 22.246,238.815 21.833 C 238.358 20.974,238.291 20.876,236.502 18.459 C 233.712 14.691,228.993 10.229,225.875 8.411 C 225.577 8.237,225.333 8.041,225.333 7.975 C 225.333 7.910,225.176 7.806,224.984 7.745 C 224.792 7.684,224.324 7.427,223.943 7.174 C 222.892 6.476,218.931 4.593,217.333 4.033 C 215.130 3.261,213.304 2.692,212.681 2.584 C 212.368 2.530,212.058 2.453,211.993 2.412 C 210.473 1.473,199.877 0.877,194.604 1.434 M99.917 14.766 C 99.325 14.852,97.625 15.131,96.917 15.257 C 89.620 16.563,80.804 26.771,84.248 29.926 C 85.277 30.868,86.922 30.866,87.868 29.920 C 88.275 29.513,88.406 29.279,88.927 28.030 C 92.772 18.819,107.596 17.246,113.713 25.399 C 114.845 26.909,115.419 27.813,115.579 28.336 C 116.364 30.919,119.430 31.499,120.666 29.298 C 121.297 28.177,121.063 27.077,119.645 24.500 C 118.540 22.490,115.746 19.446,113.917 18.259 C 113.367 17.902,112.729 17.484,112.500 17.332 C 111.860 16.904,109.520 15.876,108.935 15.764 C 108.742 15.727,108.380 15.619,108.132 15.522 C 106.803 15.006,101.575 14.525,99.917 14.766 M294.833 14.936 C 289.333 15.819,284.640 18.837,281.647 23.417 C 278.898 27.624,278.972 30.042,281.868 30.585 C 283.254 30.845,284.124 30.208,285.059 28.250 C 288.608 20.816,297.532 17.881,305.250 21.609 C 308.104 22.988,311.960 27.126,312.006 28.859 C 312.025 29.561,313.586 30.665,314.561 30.666 C 316.853 30.668,317.803 28.453,316.598 25.914 C 312.792 17.895,304.007 13.464,294.833 14.936 M82.427 31.529 C 79.933 32.080,78.886 35.239,80.535 37.239 C 82.739 39.914,87.178 38.007,86.789 34.553 C 86.560 32.528,84.470 31.079,82.427 31.529 M120.308 31.574 C 118.642 32.003,117.795 33.059,117.695 34.831 C 117.497 38.336,121.863 39.872,123.998 37.049 C 125.985 34.422,123.509 30.748,120.308 31.574 M158.417 31.506 C 156.156 32.050,154.904 34.250,155.729 36.226 C 157.212 39.776,162.483 38.930,162.559 35.130 C 162.579 34.113,162.277 33.000,161.980 33.000 C 161.899 33.000,161.833 32.918,161.833 32.818 C 161.833 32.091,159.580 31.225,158.417 31.506 M240.750 31.529 C 238.280 32.083,237.202 35.043,238.737 37.055 C 241.333 40.459,246.326 37.496,244.800 33.458 C 244.704 33.206,244.560 33.000,244.480 33.000 C 244.399 33.000,244.333 32.902,244.333 32.781 C 244.333 32.032,242.057 31.237,240.750 31.529 M278.782 31.509 C 276.069 31.971,275.008 35.620,277.034 37.520 C 279.307 39.651,283.004 38.089,282.999 35.001 C 282.995 32.718,281.066 31.121,278.782 31.509 M316.626 31.514 C 313.944 32.145,312.928 35.417,314.801 37.390 C 316.989 39.696,320.819 38.243,320.857 35.093 C 320.885 32.704,318.859 30.990,316.626 31.514 M243.917 39.263 C 243.825 39.286,243.550 39.348,243.307 39.402 C 240.958 39.917,240.996 42.505,243.407 46.333 C 244.241 47.658,247.204 50.716,248.333 51.417 C 248.746 51.674,249.121 51.937,249.167 52.003 C 249.300 52.196,252.772 53.853,253.372 54.010 C 257.124 54.993,259.116 55.253,261.583 55.083 C 267.053 54.705,270.980 52.992,274.562 49.422 C 275.588 48.399,277.551 45.852,277.584 45.500 C 277.589 45.454,277.868 44.929,278.204 44.333 C 279.726 41.638,278.854 39.333,276.314 39.333 C 275.128 39.333,274.272 40.000,273.680 41.385 C 271.410 46.691,266.734 49.580,260.417 49.581 C 253.885 49.582,249.497 46.940,246.811 41.389 C 246.063 39.845,244.929 39.011,243.917 39.263 M319.417 39.328 C 316.256 40.051,316.880 43.393,321.416 50.041 C 322.058 50.981,322.620 51.788,322.666 51.833 C 322.712 51.879,323.085 52.329,323.495 52.833 C 325.066 54.765,327.719 57.479,329.167 58.634 C 329.579 58.964,329.992 59.316,330.083 59.417 C 330.548 59.929,333.914 62.230,335.667 63.234 C 339.792 65.596,345.962 67.749,350.083 68.264 C 350.450 68.310,351.200 68.421,351.750 68.510 C 357.504 69.444,365.957 68.908,371.750 67.242 C 372.575 67.005,373.400 66.771,373.583 66.722 C 374.784 66.403,377.981 65.035,380.250 63.871 C 381.751 63.101,386.045 60.286,386.833 59.555 C 386.971 59.428,387.241 59.194,387.433 59.037 C 390.226 56.751,393.793 52.748,395.858 49.583 C 399.207 44.454,400.074 42.279,399.359 40.802 C 398.260 38.533,395.364 38.899,394.255 41.447 C 393.603 42.945,392.068 45.736,391.751 45.999 C 391.613 46.114,391.500 46.281,391.500 46.371 C 391.500 46.462,391.286 46.809,391.025 47.143 C 390.764 47.477,390.264 48.160,389.915 48.661 C 388.976 50.009,385.694 53.488,384.250 54.666 C 382.512 56.085,381.911 56.532,380.417 57.517 C 371.469 63.419,358.489 65.233,347.234 62.155 C 346.509 61.957,345.767 61.759,345.583 61.714 C 345.215 61.625,343.867 61.134,342.590 60.624 C 340.341 59.726,336.440 57.564,335.083 56.464 C 334.992 56.390,334.617 56.104,334.250 55.829 C 329.748 52.453,325.658 47.475,323.070 42.221 C 321.765 39.573,320.999 38.966,319.417 39.328 M122.731 39.651 C 120.816 40.819,121.289 44.032,123.817 47.030 C 123.919 47.151,124.283 47.586,124.626 47.997 C 125.744 49.335,127.980 51.425,128.553 51.667 C 128.661 51.712,129.050 51.944,129.417 52.180 C 135.626 56.186,145.333 56.002,151.730 51.756 C 154.002 50.248,158.134 45.443,158.256 44.167 C 158.260 44.121,158.430 43.718,158.632 43.270 C 159.940 40.382,156.621 37.915,154.375 40.107 C 154.260 40.219,153.859 40.918,153.483 41.660 C 151.534 45.514,148.289 48.244,144.500 49.219 C 143.442 49.491,140.441 49.849,140.092 49.745 C 139.996 49.716,139.279 49.651,138.500 49.600 C 136.009 49.436,133.083 48.386,131.333 47.029 C 130.294 46.223,128.210 44.066,128.083 43.664 C 128.025 43.482,127.916 43.333,127.842 43.333 C 127.767 43.333,127.660 43.202,127.605 43.042 C 126.563 40.005,124.502 38.571,122.731 39.651 M1.922 39.702 C -0.399 40.197,-0.548 42.674,1.531 46.216 C 1.789 46.655,2.000 47.064,2.000 47.123 C 2.000 47.183,2.179 47.499,2.397 47.824 C 2.615 48.150,3.153 48.979,3.591 49.667 C 4.302 50.779,5.743 52.778,5.996 53.000 C 6.048 53.046,6.462 53.533,6.916 54.083 C 8.131 55.557,10.904 58.284,12.333 59.412 C 13.021 59.955,13.621 60.445,13.667 60.502 C 13.713 60.559,14.125 60.860,14.583 61.171 C 15.042 61.482,15.492 61.798,15.583 61.874 C 19.091 64.775,28.869 68.369,34.750 68.918 C 41.347 69.535,45.050 69.446,50.057 68.553 C 54.999 67.672,61.578 65.287,64.500 63.318 C 64.729 63.164,65.367 62.751,65.917 62.401 C 69.734 59.971,74.127 55.900,76.870 52.250 C 76.939 52.158,77.169 51.858,77.381 51.583 C 77.743 51.115,78.301 50.275,79.430 48.500 C 80.068 47.496,80.715 46.313,81.344 45.000 C 81.629 44.404,81.950 43.737,82.056 43.516 C 82.790 42.001,81.757 39.926,80.164 39.712 C 78.417 39.477,77.756 39.988,76.565 42.493 C 76.065 43.544,75.420 44.781,75.130 45.243 C 74.106 46.878,73.427 47.918,73.331 48.000 C 73.278 48.046,73.054 48.346,72.834 48.667 C 71.440 50.703,68.160 54.065,65.762 55.917 C 65.406 56.192,64.920 56.572,64.682 56.761 C 64.160 57.177,62.846 58.054,62.500 58.217 C 62.362 58.282,61.950 58.522,61.583 58.750 C 50.506 65.628,32.208 65.624,20.750 58.741 C 20.383 58.520,19.971 58.287,19.833 58.222 C 19.512 58.071,17.610 56.796,17.500 56.658 C 17.454 56.601,17.117 56.335,16.750 56.068 C 12.523 52.993,7.670 46.916,5.376 41.825 C 4.933 40.842,4.176 39.840,3.867 39.829 C 3.803 39.827,3.487 39.766,3.167 39.693 C 2.846 39.621,2.286 39.625,1.922 39.702 " stroke="none" fill="#b4d434" fill-rule="evenodd"></path><path id="path1" d="M249.583 45.500 C 249.941 45.867,250.272 46.167,250.318 46.167 C 250.363 46.167,250.108 45.867,249.750 45.500 C 249.392 45.133,249.062 44.833,249.016 44.833 C 248.970 44.833,249.225 45.133,249.583 45.500 " stroke="none" fill="#b8d434" fill-rule="evenodd"></path><path id="path2" d="M249.583 45.500 C 249.941 45.867,250.272 46.167,250.318 46.167 C 250.363 46.167,250.108 45.867,249.750 45.500 C 249.392 45.133,249.062 44.833,249.016 44.833 C 248.970 44.833,249.225 45.133,249.583 45.500 " stroke="none" fill="#b8d434" fill-rule="evenodd"></path><path id="path3" d="M249.583 45.500 C 249.941 45.867,250.272 46.167,250.318 46.167 C 250.363 46.167,250.108 45.867,249.750 45.500 C 249.392 45.133,249.062 44.833,249.016 44.833 C 248.970 44.833,249.225 45.133,249.583 45.500 " stroke="none" fill="#b8d434" fill-rule="evenodd"></path><path id="path4" d="M249.583 45.500 C 249.941 45.867,250.272 46.167,250.318 46.167 C 250.363 46.167,250.108 45.867,249.750 45.500 C 249.392 45.133,249.062 44.833,249.016 44.833 C 248.970 44.833,249.225 45.133,249.583 45.500 " stroke="none" fill="#b8d434" fill-rule="evenodd"></path></g></svg>